# xmcd
#
# Track frame offsets:
#	150
#	23220
#	43626
#	63604
#	93309
#	120195
#	143632
#	170528
#	201090
#	223036
#
# Disc length: 3197 seconds
#
# Revision: 0
# Processed by: cddbd v1.5.2PL0 Copyright (c) Steve Scherf et al.
# Submitted via: dBpowerAMP V4.0
#
DISCID=880c7b0a
DTITLE=Eric's Blues Band - From Town To Town
DYEAR=2008
DGENRE=Blues
TTITLE0=Taxi Take Me Down The Road
TTITLE1=From Town To Town
TTITLE2=I'm A Man
TTITLE3=Girl, Please Don't Cry
TTITLE4=He Will Always Be Here
TTITLE5=Tears Running
TTITLE6=Three O'Clock In The Morning
TTITLE7=Another Sad Goodbye
TTITLE8=Glass Of Water
TTITLE9=I've Done It Again
EXTD=
EXTT0=
EXTT1=
EXTT2=
EXTT3=
EXTT4=
EXTT5=
EXTT6=
EXTT7=
EXTT8=
EXTT9=
PLAYORDER=
